<svg width="1139" height="1229" viewBox="0 0 1139 1229" fill="none" xmlns="http://www.w3.org/2000/svg">
<path d="M743.903 783.389V940.954C743.903 941.48 744.31 941.917 744.835 941.952L877.331 950.884C877.379 950.888 877.427 950.887 877.474 950.884L929.903 946.889" stroke="black" stroke-width="7" stroke-linecap="round"/>
<path d="M743.903 782.889L876.28 766.528C876.876 766.454 877.403 766.919 877.403 767.52V948.889" stroke="black" stroke-width="7" stroke-linecap="round"/>
<path d="M903.803 767.889L1073.97 778.829C1074.49 778.863 1074.9 779.3 1074.9 779.827V845.889" stroke="black" stroke-width="7" stroke-linecap="round"/>
<path d="M744.403 941.889H694.403C693.85 941.889 693.403 942.337 693.403 942.889V1002.03C693.403 1002.52 693.764 1002.94 694.254 1003.02L841.754 1025.22C842.359 1025.31 842.903 1024.84 842.903 1024.23V966.889" stroke="black" stroke-width="7" stroke-linecap="round"/>
<path d="M842.403 1025.39L960.903 1014.39" stroke="black" stroke-width="7" stroke-linecap="round"/>
<path d="M912.403 1022.39V897.389L966.403 1022.39H912.403Z" fill="black" fill-opacity="0.3"/>
<path d="M1062.33 962.194L984.339 799.878C983.687 798.521 984.712 796.957 986.216 797.013L1021.71 798.344C1022.44 798.372 1023.1 798.803 1023.43 799.466L1101.78 960.107C1102.15 960.874 1102 961.794 1101.39 962.398L1085.46 978.337C1085.1 978.692 1084.62 978.9 1084.12 978.921L1052.58 980.199C1050.82 980.271 1049.84 978.198 1051 976.878L1062.03 964.383C1062.56 963.781 1062.68 962.918 1062.33 962.194Z" fill="black"/>
<path d="M1017.81 1009.51L1010.34 1017.3C1009.1 1018.6 1010.07 1020.76 1011.87 1020.68L1041.68 1019.42C1042.15 1019.4 1042.59 1019.22 1042.94 1018.9L1050.09 1012.37C1051.44 1011.13 1050.57 1008.89 1048.75 1008.89H1019.26C1018.71 1008.89 1018.19 1009.11 1017.81 1009.51Z" fill="black"/>
<path d="M792.903 794.142V778.64C792.903 777.638 793.645 776.79 794.638 776.658L820.638 773.191C821.837 773.031 822.903 773.964 822.903 775.174V791.109C822.903 792.124 822.142 792.978 821.134 793.095L795.134 796.129C793.946 796.267 792.903 795.339 792.903 794.142Z" fill="black"/>
<path d="M747.903 995.645V1008.68C747.903 1009.66 748.621 1010.5 749.596 1010.65L774.596 1014.53C775.808 1014.72 776.903 1013.78 776.903 1012.55V998.662C776.903 997.65 776.147 996.798 775.142 996.677L750.142 993.659C748.951 993.516 747.903 994.445 747.903 995.645Z" fill="black"/>
<path d="M794.903 927.389V943.044C794.903 944.086 795.703 944.954 796.742 945.037L823.742 947.215C824.906 947.309 825.903 946.389 825.903 945.221V927.389C825.903 926.285 825.007 925.389 823.903 925.389H796.903C795.798 925.389 794.903 926.285 794.903 927.389Z" fill="black"/>
<path d="M747.903 966.116V944.532C747.903 943.373 748.884 942.457 750.04 942.537L775.04 944.261C776.089 944.333 776.903 945.205 776.903 946.256V969.133C776.903 970.333 775.854 971.263 774.663 971.119L749.663 968.102C748.658 967.98 747.903 967.128 747.903 966.116Z" fill="black"/>
<path d="M966.332 1021.58L894.156 855.971C894.001 855.616 894.065 855.203 894.321 854.912L945.901 796.032C946.375 795.492 947.247 795.612 947.556 796.261L1027.59 964.234C1027.78 964.625 1027.69 965.091 1027.38 965.389L967.938 1021.9C967.435 1022.38 966.609 1022.22 966.332 1021.58Z" stroke="black" stroke-width="7" stroke-linecap="round"/>
<path d="M967.903 1022.39L1075.03 1017.41C1075.27 1017.4 1075.5 1017.3 1075.67 1017.14L1134.46 961.72C1135.13 961.086 1134.66 959.957 1133.74 959.993L1046.3 963.389" stroke="black" stroke-width="7" stroke-linecap="round"/>
<path d="M946.903 795.389L1050.32 799.367C1050.68 799.381 1051 799.586 1051.17 799.905L1134.4 959.889" stroke="black" stroke-width="7" stroke-linecap="round"/>
<path d="M216.535 1214.2C240.79 1202.8 299.827 1180.74 341.949 1183.65C347.921 1183.89 356.94 1186.42 345.24 1194.56C333.539 1202.71 327.689 1206.93 326.227 1208.02C320.133 1213.11 314.16 1223.87 339.024 1226.2C370.103 1229.11 457.857 1197.47 631.535 1220.74" stroke="black" stroke-width="5" stroke-linecap="round"/>
<path d="M22.1726 996.387V975.389" stroke="black" stroke-width="5" stroke-linecap="round"/>
<path d="M3.40259 987.055L14.8525 996.387" stroke="black" stroke-width="5" stroke-linecap="round"/>
<path d="M29.8127 996.387L38.4027 982.722" stroke="black" stroke-width="5" stroke-linecap="round"/>
<path d="M460.289 1122.39V1091.39" stroke="black" stroke-width="5" stroke-linecap="round"/>
<path d="M432.403 1108.61L449.414 1122.39" stroke="black" stroke-width="5" stroke-linecap="round"/>
<path d="M471.64 1122.39L484.403 1102.22" stroke="black" stroke-width="5" stroke-linecap="round"/>
<path d="M649.903 356.889L650.896 513.919C650.9 514.46 650.473 514.905 649.933 514.925L528.903 519.389L453.403 514.889" stroke="black" stroke-width="5" stroke-linecap="round"/>
<path d="M649.903 356.389H527.903C527.35 356.389 526.903 356.837 526.903 357.389V423.389" stroke="black" stroke-width="5" stroke-linecap="round"/>
<path d="M507.903 356.389H405.403C404.85 356.389 404.403 356.837 404.403 357.389V447.389" stroke="black" stroke-width="5" stroke-linecap="round"/>
<path d="M606.903 378.265V365.755C606.903 364.718 606.11 363.853 605.077 363.763L580.077 361.579C578.908 361.477 577.903 362.398 577.903 363.571V376.755C577.903 377.812 578.726 378.687 579.782 378.751L604.782 380.261C605.932 380.331 606.903 379.417 606.903 378.265Z" fill="black"/>
<path d="M603.403 500.389V515.161C603.403 516.202 602.604 517.069 601.567 517.154L576.567 519.211C575.401 519.307 574.403 518.387 574.403 517.218V500.389C574.403 499.285 575.298 498.389 576.403 498.389H601.403C602.507 498.389 603.403 499.285 603.403 500.389Z" fill="black"/>
<path d="M528.403 519.389V487.889" stroke="black" stroke-width="5" stroke-linecap="round"/>
<path d="M381.403 631.389C381.403 620.389 381.403 570.289 381.403 553.889" stroke="black" stroke-width="5" stroke-linecap="round"/>
<path d="M383.403 445.853C383.403 401.224 371.696 379.468 355.529 357.711" stroke="black" stroke-width="5" stroke-linecap="round"/>
<path d="M195.403 621.889C185.903 505.889 192.734 427.389 233.351 364.407C245.615 345.389 273.01 328.209 291.421 334.84" stroke="black" stroke-width="5" stroke-linecap="round"/>
<path d="M361.076 328.764C370.054 321.685 437.642 320.595 441.132 227.423C465.384 224.886 469.767 210.129 456.775 197.177C438.73 179.188 441.041 168.847 443.331 157.442C447.327 142.371 445.908 127.201 444.317 124.178" stroke="black" stroke-width="5" stroke-linecap="round"/>
<path d="M465.94 209.451C436.73 214.55 403.95 225.329 339.046 175.543C337 183.043 331.216 202.365 324.441 219.644C315.973 241.244 373.348 324.551 412.726 306.484C444.904 291.72 466.242 269.617 465.94 209.451Z" fill="black"/>
<path d="M415.901 199.341C418.548 200.061 421.609 197.284 422.738 193.136C423.867 188.988 422.637 185.041 419.991 184.321C417.344 183.6 414.283 186.378 413.154 190.527C412.025 194.674 413.254 198.621 415.901 199.341Z" fill="black"/>
<path d="M397.645 184.69C397.084 178.761 399.291 166.669 412.605 165.722" stroke="black" stroke-width="5" stroke-linecap="round"/>
<path d="M316.974 180.856C315.693 184.836 315.25 193.58 323.723 196.732" stroke="black" stroke-width="5" stroke-linecap="round"/>
<path d="M227.216 151.982C223.795 204.633 257.796 240.007 282.643 267.352C304.035 252.36 338.034 218.677 323.316 217.183C307.847 215.612 287.149 176.324 300.331 162.035C315.796 145.27 333.886 165.806 338.811 182.401L349.864 156.855C344.001 140.57 339.047 111.382 366.134 124.915C393.221 138.447 429.641 129.836 444.464 123.839C472.144 98.7097 513.187 42.8337 455.928 20.3609C408.303 1.67012 353.474 38.6945 321.02 70.0055C296.161 66.4468 231.878 80.1957 227.216 151.982Z" fill="black"/>
<path d="M283.917 263.703C296.344 275.556 303.029 285.823 304.982 308.474" stroke="black" stroke-width="5" stroke-linecap="round"/>
<path d="M326.201 391.389C336.467 470.004 362.095 477.073 373.626 470.781C396.688 460.233 447.498 442.911 466.245 458.012C484.992 473.113 462.525 493.544 448.948 501.872C403.941 533.888 306.226 586.372 275.428 540.18C244.629 493.988 242.509 435.804 245.298 412.486" stroke="black" stroke-width="5" stroke-linecap="round"/>
<path d="M292.428 335.672C289.515 325.512 287.808 306.133 304.282 309.899C324.874 314.607 366.23 345.092 363.155 356.38" stroke="black" stroke-width="5" stroke-linecap="round"/>
<path d="M528.55 468.73C530.406 474.434 527.429 487.635 500.155 490.834C489.836 492.045 488.286 491.875 478.6 491.058" stroke="black" stroke-width="5" stroke-linecap="round"/>
<path d="M532.336 452.148C536.882 453.428 540.969 458.383 528.549 468.73C525.833 470.992 522.328 473.512 517.865 476.309" stroke="black" stroke-width="5" stroke-linecap="round"/>
<path d="M530.312 440.134C535.076 440.079 539.688 442.764 532.336 452.148C529.153 456.211 523.727 461.529 515.099 468.425" stroke="black" stroke-width="5" stroke-linecap="round"/>
<path d="M472.048 447.477C493.715 425.215 502.969 424.092 498.618 442.33C494.268 460.568 510.41 444.896 518.797 435.879C522.167 432.131 529.67 426.103 532.72 431.975C533.77 433.996 532.613 436.921 530.312 440.134C525.925 446.257 517.378 453.427 512.018 457.376" stroke="black" stroke-width="5" stroke-linecap="round"/>
<path d="M354.243 910.273C388.404 782.363 389.402 733.771 383.881 627.17C322.234 668.985 224.033 635.458 193.012 620.389C175.173 727.101 186.689 930.427 212.573 1054.93C222.531 1071.21 243.989 1062.84 253.474 1056.63L265.329 970.171L278.963 1045.89C286.55 1058.55 308.996 1056.06 319.27 1053.24L354.243 910.273Z" fill="black"/>
<path d="M191.903 1085.61C189.102 1077.21 208.569 1082.11 217.402 1085.61C217.402 1093.21 236.069 1099.11 245.402 1101.11C209.402 1098.61 193.403 1090.11 191.903 1085.61Z" fill="black"/>
<path d="M272.19 1077.9C266.189 1072.3 276.69 1071.57 283.19 1072.4C285.19 1088.4 286.69 1083.9 296.19 1089.4C294.69 1091.9 278.19 1083.5 272.19 1077.9Z" fill="black"/>
<path d="M319.255 1062.92C322.405 1067.15 332.25 1075.6 341.702 1075.6C349.791 1075.6 352.926 1085.26 344.065 1090.08C329.297 1096.12 295.272 1093.34 284.403 1079.82V1061.11" stroke="black" stroke-width="5" stroke-linecap="round"/>
<path d="M250.015 1068.11C252.799 1070.54 259.916 1075.63 266.12 1076.6C273.874 1077.81 284.674 1086.92 278.646 1097.82C273.278 1107.51 261.348 1105.49 254.19 1103.27L226.157 1092.97C223.174 1091.75 218.403 1089.93 218.403 1082.66C218.403 1075.39 218.403 1072.36 218.403 1071.75" stroke="black" stroke-width="5" stroke-linecap="round"/>
</svg>
