<svg width="415" height="529" viewBox="0 0 415 529" fill="none" xmlns="http://www.w3.org/2000/svg">
<path d="M8.09176 335.944L31.5593 331.677C32.5404 331.499 33.3687 330.845 33.7695 329.932L41.3143 312.746C41.8062 311.626 41.5683 310.319 40.7129 309.444L22.9363 291.254C21.6991 289.988 21.8213 287.931 23.1999 286.821L54.2491 261.809C55.5561 260.756 57.4725 260.98 58.5013 262.306L77.2913 286.524C78.3062 287.832 80.189 288.071 81.4981 287.057L93.2482 277.961C94.1014 277.3 94.5342 276.232 94.3816 275.164L90.6176 248.816C90.3594 247.009 91.7618 245.392 93.5874 245.392H125.628C127.285 245.392 128.628 246.735 128.628 248.392V269.804C128.628 271.059 129.41 272.181 130.586 272.617L153.97 281.278C154.993 281.657 156.142 281.45 156.969 280.739L174.777 265.415C176.063 264.309 178.009 264.488 179.072 265.81L195.829 286.653C196.835 287.905 196.677 289.728 195.47 290.787L178.704 305.508C177.758 306.339 177.431 307.673 177.887 308.847L185.617 328.785C186.187 330.253 187.795 331.031 189.3 330.566L210.732 323.942C212.507 323.393 214.35 324.574 214.592 326.417L218.802 358.409C218.991 359.847 218.125 361.214 216.744 361.657L194.178 368.895C193.212 369.205 192.467 369.983 192.2 370.962L186.98 390.102C186.756 390.923 186.892 391.801 187.353 392.516L199.594 411.511C200.455 412.848 200.124 414.624 198.839 415.561L173.413 434.091C172.352 434.865 170.91 434.858 169.856 434.074L153.754 422.101C152.772 421.371 151.444 421.31 150.4 421.949L135.932 430.79C134.85 431.451 134.301 432.72 134.56 433.962L138.437 452.576C138.805 454.338 137.547 456.025 135.753 456.177L100.545 459.146C98.9229 459.283 97.4875 458.101 97.311 456.482L94.8679 434.087C94.7254 432.781 93.7504 431.72 92.4616 431.468L73.4996 427.758C72.3577 427.535 71.1896 427.992 70.5025 428.931L58.557 445.256C57.5194 446.674 55.4906 446.901 54.1656 445.747L27.5898 422.6C26.4643 421.62 26.2306 419.961 27.0414 418.708L41.1975 396.831C41.7744 395.939 41.837 394.809 41.3621 393.859L29.9576 371.05C29.4494 370.034 28.4106 369.392 27.2743 369.392H8.62842C6.97156 369.392 5.62842 368.049 5.62842 366.392V338.896C5.62842 337.446 6.66529 336.204 8.09176 335.944Z" stroke="black" stroke-width="5"/>
<path d="M199.628 414.392L170.418 436.064C169.355 436.853 167.902 436.852 166.84 436.062L150.754 424.101C149.772 423.371 148.444 423.31 147.4 423.949L132.932 432.79C131.85 433.451 131.301 434.72 131.56 435.962L135.437 454.576C135.805 456.338 134.547 458.025 132.753 458.177L97.5454 461.146C95.9229 461.283 94.4875 460.101 94.311 458.482L91.8679 436.087C91.7254 434.781 90.7504 433.72 89.4616 433.468L70.4996 429.758C69.3577 429.535 68.1896 429.992 67.5025 430.931L55.557 447.256C54.5194 448.674 52.4906 448.901 51.1656 447.747L24.5898 424.6C23.4643 423.62 23.2306 421.961 24.0414 420.708L38.1975 398.831C38.7744 397.939 38.837 396.809 38.3621 395.859L26.9576 373.05C26.4494 372.034 25.4106 371.392 24.2743 371.392H5.62842C3.97156 371.392 2.62842 370.049 2.62842 368.392V340.896C2.62842 339.446 3.66529 338.204 5.09176 337.944L28.5593 333.677C29.5404 333.499 30.3687 332.845 30.7695 331.932L38.3143 314.746C38.8062 313.626 38.5683 312.319 37.7129 311.444L19.9363 293.254C18.6991 291.988 18.8213 289.931 20.1999 288.821L51.2491 263.809C52.5561 262.756 54.4725 262.98 55.5013 264.306L74.2913 288.524C75.3062 289.832 77.189 290.071 78.4981 289.057L90.4649 279.793C91.1988 279.225 91.6284 278.349 91.6284 277.421V247.892" stroke="black" stroke-width="5" stroke-linecap="round"/>
<circle cx="112.628" cy="352.392" r="34.5" stroke="black" stroke-width="5"/>
<path d="M117.128 386.392C133.128 382.392 142.628 369.513 142.628 352.392C142.628 335.271 131.628 317.892 110.628 317.892" stroke="black" stroke-width="5" stroke-linecap="round"/>
<circle cx="295.748" cy="247.392" r="22.5" stroke="black" stroke-width="5"/>
<path d="M297.748 269.892C309.248 264.892 315.748 258.892 315.748 247.392C314.748 235.892 308.748 228.892 297.748 224.892" stroke="black" stroke-width="5" stroke-linecap="round"/>
<circle cx="282.248" cy="418.392" r="19" stroke="black" stroke-width="5"/>
<path d="M282.749 437.392C293.748 434.392 298.872 427.392 299.748 419.392C301.039 407.588 292.248 401.892 286.248 399.892" stroke="black" stroke-width="5" stroke-linecap="round"/>
<path d="M229.917 261.386L234.931 272.57C235.425 273.674 235.209 274.966 234.382 275.849L222.63 288.385C221.565 289.52 221.546 291.282 222.586 292.44L236.524 307.971C237.515 309.076 239.164 309.29 240.404 308.475L254.304 299.341C255.197 298.754 256.336 298.686 257.293 299.165L267.089 304.063C268.106 304.571 268.748 305.61 268.748 306.746V320.392C268.748 322.049 270.091 323.392 271.748 323.392H298.748C300.404 323.392 301.748 322.049 301.748 320.392V310.484C301.748 309.227 302.531 308.103 303.71 307.669L318.557 302.199C319.845 301.725 321.291 302.185 322.068 303.318L330.754 315.985C331.799 317.509 333.961 317.735 335.299 316.46L352.298 300.251C353.407 299.194 353.541 297.47 352.609 296.254L343.961 284.975C343.226 284.016 343.137 282.71 343.737 281.661L350.011 270.681C350.475 269.869 351.292 269.32 352.219 269.196L370.512 266.757C372.058 266.551 373.189 265.194 373.112 263.636L371.896 238.912C371.814 237.248 370.392 235.97 368.729 236.065L356.175 236.782C355.001 236.849 353.896 236.224 353.349 235.184L345.339 219.966C344.698 218.747 344.969 217.248 345.996 216.331L356.184 207.234C357.35 206.194 357.521 204.432 356.578 203.186L346.187 189.455C345.138 188.069 343.135 187.861 341.824 189.003L330.501 198.865C329.469 199.764 327.959 199.85 326.831 199.075L313.837 190.141C313.143 189.664 312.682 188.917 312.566 188.082L310.656 174.33C310.429 172.702 308.936 171.559 307.305 171.767L285.369 174.558C283.87 174.749 282.748 176.024 282.748 177.534V190.129C282.748 191.469 281.86 192.646 280.572 193.014L270.112 196.002C269.248 196.249 268.319 196.096 267.581 195.584L251.277 184.297C250.098 183.481 248.506 183.613 247.478 184.613L233.39 198.309C232.205 199.461 232.175 201.354 233.321 202.543L243.083 212.666C244.056 213.675 244.201 215.224 243.431 216.396L234.136 230.54C233.582 231.384 232.639 231.892 231.629 231.892H219.314C217.836 231.892 216.579 232.968 216.35 234.427L213.215 254.413C212.957 256.056 214.085 257.595 215.729 257.844L227.629 259.647C228.638 259.8 229.5 260.455 229.917 261.386Z" stroke="black" stroke-width="5"/>
<path d="M355.248 207.392L343.187 191.455C342.138 190.069 340.135 189.861 338.824 191.003L327.501 200.865C326.469 201.764 324.959 201.85 323.831 201.075L310.837 192.141C310.143 191.664 309.682 190.917 309.566 190.082L307.656 176.33C307.429 174.702 305.936 173.559 304.305 173.767L282.369 176.558C280.87 176.749 279.748 178.024 279.748 179.534V192.129C279.748 193.469 278.86 194.646 277.572 195.014L267.112 198.002C266.248 198.249 265.319 198.096 264.581 197.584L248.277 186.297C247.098 185.481 245.506 185.613 244.478 186.613L230.39 200.309C229.205 201.461 229.175 203.354 230.321 204.543L240.083 214.666C241.056 215.675 241.201 217.224 240.431 218.396L231.136 232.54C230.582 233.384 229.639 233.892 228.629 233.892H216.314C214.836 233.892 213.579 234.968 213.35 236.427L210.215 256.413C209.957 258.056 211.085 259.595 212.729 259.844L224.629 261.647C225.638 261.8 226.5 262.455 226.917 263.386L232.006 274.737C232.462 275.755 232.316 276.941 231.627 277.818L221.748 290.392" stroke="black" stroke-width="5" stroke-linecap="round"/>
<path d="M344.376 398.864L333.665 405.512C332.784 406.059 332.248 407.023 332.248 408.061V420.361C332.248 421.588 332.994 422.691 334.133 423.146L342.443 426.47C343.78 427.005 344.549 428.415 344.274 429.828L341.72 442.965C341.445 444.374 340.211 445.392 338.775 445.392H323.748C322.803 445.392 321.914 445.837 321.348 446.592L315.982 453.746C315.238 454.738 315.181 456.085 315.838 457.136L323.033 468.649C323.959 470.13 323.429 472.084 321.884 472.896L307.328 480.537C305.891 481.292 304.114 480.767 303.319 479.352L296.608 467.421C296.076 466.477 295.077 465.892 293.993 465.892H279.8C278.563 465.892 277.452 466.652 277.004 467.805L271.756 481.299C271.187 482.762 269.587 483.539 268.086 483.082L250.873 477.843C249.191 477.332 248.308 475.491 248.961 473.859L253.799 461.764C254.346 460.397 253.819 458.835 252.557 458.078L241.337 451.346C240.363 450.761 239.142 450.777 238.183 451.388L231.554 455.606C230.053 456.561 228.056 456.008 227.26 454.417L220.039 439.975C219.318 438.533 219.866 436.779 221.28 436.003L232.69 429.746C233.651 429.219 234.248 428.211 234.248 427.116V414.068C234.248 413.027 233.707 412.059 232.82 411.514L223.502 405.779C222.214 404.987 221.717 403.359 222.343 401.983L227.63 390.351C228.265 388.953 229.853 388.261 231.31 388.746L241.491 392.14C242.813 392.58 244.264 392.053 244.994 390.866L250.78 381.464C251.373 380.5 251.373 379.284 250.78 378.32L245.273 369.371C244.423 367.99 244.824 366.184 246.179 365.292L259.962 356.225C261.451 355.245 263.46 355.772 264.277 357.355L269.909 368.268C270.424 369.265 271.453 369.892 272.575 369.892H288.563C289.865 369.892 291.018 369.052 291.418 367.813L294.765 357.437C295.297 355.788 297.112 354.931 298.723 355.569L314.63 361.857C316.102 362.439 316.868 364.064 316.381 365.57L312.402 377.87C312.01 379.082 312.425 380.408 313.438 381.18L320.444 386.518C321.511 387.331 322.988 387.336 324.062 386.531L333.429 379.506C334.907 378.397 337.026 378.876 337.885 380.511L345.45 394.921C346.181 396.313 345.713 398.035 344.376 398.864Z" stroke="black" stroke-width="5"/>
<path d="M297.045 356.892L312.549 363.62C313.965 364.235 314.684 365.823 314.21 367.293L310.344 379.285C309.954 380.494 310.368 381.817 311.377 382.589L318.102 387.73C319.171 388.548 320.653 388.553 321.728 387.744L330.707 380.986C332.187 379.873 334.311 380.352 335.17 381.992L342.458 395.922C343.185 397.313 342.718 399.03 341.385 399.859L331.053 406.295C330.174 406.843 329.639 407.805 329.639 408.841V420.769C329.639 421.995 330.385 423.097 331.522 423.553L339.503 426.757C340.837 427.292 341.604 428.7 341.33 430.111L338.867 442.825C338.594 444.236 337.359 445.254 335.922 445.254H321.413C320.467 445.254 319.576 445.701 319.01 446.458L313.84 453.376C313.1 454.366 313.043 455.709 313.696 456.758L320.637 467.903C321.558 469.382 321.03 471.331 319.489 472.143L305.469 479.53C304.03 480.288 302.249 479.761 301.453 478.342L294.985 466.803C294.455 465.856 293.454 465.27 292.368 465.27H278.729C277.46 465.27 276.328 466.069 275.903 467.264L271.748 478.939" stroke="black" stroke-width="5" stroke-linecap="round"/>
<path d="M170.495 221.714C172.445 213.684 181.813 197.936 185.106 187.729C185.447 186.67 187.636 186.53 188.003 187.579C193.013 201.874 199.046 215.628 200.781 221.714C202.726 228.535 203.366 245.709 186.244 245.388C169.122 245.067 168.61 229.472 170.495 221.714Z" fill="black"/>
<path d="M202.261 156.231C203.503 151.155 209.118 141.561 211.74 134.637C212.133 133.599 214.492 133.487 214.87 134.531C218.188 143.702 221.955 152.304 223.083 156.231C224.42 160.887 224.86 172.608 213.089 172.389C201.317 172.17 200.966 161.526 202.261 156.231Z" fill="black"/>
<path d="M212.748 108.846L228.929 81.1143C229.442 80.2352 230.211 79.5336 231.133 79.1032L287.489 52.8078C289.325 51.9512 291.522 52.2739 292.733 53.8984C295.029 56.9797 297.536 61.9092 297.735 67.8584C297.804 69.9088 296.291 71.5989 294.308 72.1261L240.793 86.356C239.581 86.6783 238.534 87.4444 237.861 88.5022L222.646 112.392" stroke="black" stroke-width="5" stroke-linecap="round"/>
<path d="M224.685 113.566C225.668 108.8 214.856 104.987 210.924 106.893C207.975 108.8 210.924 112.613 215.839 114.519C219.771 116.044 224.685 115.473 224.685 113.566Z" fill="black"/>
<path d="M289.748 52.0987C290.438 38.9227 301.377 11.1186 339.292 2.94556C341 2.57726 342.781 3.17642 343.877 4.53817C353.68 16.7237 368.935 44.6413 365.159 76.4237C364.917 78.4617 363.382 80.0887 361.367 80.4798C341.385 84.3587 307.673 86.4899 297.748 70.8921" stroke="black" stroke-width="5" stroke-linecap="round"/>
</svg>
