<svg width="415" height="375" viewBox="0 0 415 375" fill="none" xmlns="http://www.w3.org/2000/svg">
<path d="M74.9288 74.3466L102.464 26.6533C110.741 12.3171 129.067 7.39473 143.413 15.6539L223.73 61.892M29.2295 155.892L16.8577 176.274C8.12693 190.658 12.9312 209.408 27.5031 217.821L39.7193 224.875M191.229 313.892L272.133 359.433C286.46 367.497 304.609 362.528 312.83 348.29L339.933 301.347M389.23 215.892L399.464 198.193C407.763 183.843 402.85 165.483 388.494 157.194L376.219 150.108" stroke="black" stroke-width="7" stroke-linecap="round"/>
<rect x="39.7192" y="74.3464" width="336" height="226" rx="26.5" stroke="black" stroke-width="7"/>
<path d="M167.219 74.3464V120.392M167.219 299.846V195.392" stroke="black" stroke-width="7" stroke-linecap="round"/>
<circle cx="167.219" cy="155.846" r="18.5" stroke="black" stroke-width="7"/>
<path d="M40.2192 155.846H69.2295" stroke="black" stroke-width="7" stroke-linecap="round"/>
<path d="M264.729 155.846H375.719" stroke="black" stroke-width="7" stroke-linecap="round"/>
<path d="M101.048 121.911C122.219 110.347 145.553 128.013 153.719 139.846C142.519 151.446 146.053 165.18 150.719 169.846C121.719 140.847 97.5526 158.68 89.2192 171.346C83.2192 164.846 76.3675 135.393 101.048 121.911Z" fill="black"/>
<path d="M154.986 141.846C146.819 130.013 124.586 109.546 100.986 122.346C71.4858 138.346 86.4858 175.346 91.4858 180.846C96.4858 186.346 120.986 214.346 154.986 171.346" stroke="black" stroke-width="7" stroke-linecap="round"/>
<path d="M150.713 175.681C141.047 160.848 115.486 140.646 87.4858 173.846" stroke="black" stroke-width="7" stroke-linecap="round"/>
<path d="M129.213 223.681C129.213 210.681 138.567 211.446 147.213 202.181C157.012 191.681 153.9 176.657 167.986 175.346" stroke="black" stroke-width="7" stroke-linecap="round"/>
<path d="M206.486 223.681C206.486 210.681 197.132 211.446 188.486 202.181C178.687 191.681 181.8 176.657 167.713 175.346" stroke="black" stroke-width="7" stroke-linecap="round"/>
<path d="M233.157 121.911C211.986 110.347 188.653 128.013 180.486 139.846C191.686 151.446 188.153 165.18 183.486 169.846C212.486 140.847 236.653 158.68 244.986 171.346C250.986 164.846 257.838 135.393 233.157 121.911Z" fill="black"/>
<path d="M179.219 141.846C187.386 130.013 209.619 109.546 233.219 122.346C262.719 138.346 247.719 175.346 242.719 180.846C237.719 186.346 213.219 214.346 179.219 171.346" stroke="black" stroke-width="7" stroke-linecap="round"/>
<path d="M183.213 176.181C192.88 161.348 218.719 140.646 246.719 173.846" stroke="black" stroke-width="7" stroke-linecap="round"/>
</svg>
